# AST/ASF file generated using VICON BodyLanguage
# -----------------------------------------------
:version 1.10
:name VICON
:units
  mass 1.0
  length 0.45
  angle deg
:documentation
   .ast/.asf automatically generated from VICON data using
   VICON BodyBuilder and BodyLanguage model FoxedUp or BRILLIANT.MOD
:root
   order TX TY TZ RX RY RZ
   axis XYZ
   position 0 0 0  
   orientation 0 0 0 
:bonedata
  begin
     id 1 
     name lhipjoint
     direction 0.729592 -0.560644 0.39163 
     length 2.81907 
     axis 0 0 0  XYZ
  end
  begin
     id 2 
     name lfemur
     direction 0.34202 -0.939693 0  
     length 5.92797  
     axis 0 0 20  XYZ
    dof rx ry rz
    limits (-160.0 20.0)
           (-70.0 70.0)
           (-60.0 70.0)
  end
  begin
     id 3 
     name ltibia
     direction 0.34202 -0.939693 0   
     length 7.88118   
     axis 0 0 20   XYZ
    dof rx
    limits (-10.0 170.0)
  end
  begin
     id 4 
     name lfoot
     direction 0.0476411 -0.130893 0.990251   
     length 1.97348   
     axis -90 7.62852e-016 20   XYZ
    dof rx rz
    limits (-45.0 90.0)
           (-70.0 20.0)
  end
  begin
     id 5 
     name ltoes
     direction 1.53635e-011 -4.21786e-011 1   
     length 0.999366   
     axis -90 7.62852e-016 20   XYZ
    dof rx
    limits (-90.0 20.0)
  end
  begin
     id 6 
     name rhipjoint
     direction -0.702143 -0.583724 0.407752   
     length 2.70761  
     axis 0 0 0  XYZ 
  end
  begin
     id 7 
     name rfemur
     direction -0.34202 -0.939693 0   
     length 5.98021   
     axis 0 0 -20   XYZ
    dof rx ry rz
    limits (-160.0 20.0)
           (-70.0 70.0)
           (-70.0 60.0)
  end
  begin
     id 8 
     name rtibia
     direction -0.34202 -0.939693 0   
     length 7.66627   
     axis 0 0 -20   XYZ
    dof rx
    limits (-10.0 170.0)
 end
 begin
     id 9 
     name rfoot
     direction -0.0516088 -0.141794 0.98855   
     length 2.01387  
     axis -90 -7.62852e-016 -20   XYZ
    dof rx rz
    limits (-45.0 90.0)
           (-20.0 70.0)
  end
  begin
     id 10 
     name rtoes
     direction -1.53568e-011 -4.21939e-011 1   
     length 1.01862   
     axis -90 -7.62852e-016 -20   XYZ
    dof rx
    limits (-90.0 20.0)
  end
  begin
     id 11 
     name lowerback
     direction -0.0436953 0.98817 -0.147007   
     length 1.83615   
     axis 0 0 0   XYZ
    dof rx ry rz
    limits (-20.0 45.0)
           (-30.0 30.0)
           (-30.0 30.0)
  end
  begin
     id 12 
     name upperback
     direction 0.0239184 0.998197 0.0550483   
     length 1.80285   
     axis 0 0 0   XYZ
    dof rx ry rz
    limits (-20.0 45.0)
           (-30.0 30.0)
           (-30.0 30.0)
  end
  begin
     id 13 
     name thorax
     direction 0.0460768 0.990713 0.127927   
     length 1.87059   
     axis 0 0 0   XYZ
    dof rx ry rz
    limits (-20.0 45.0)
           (-30.0 30.0)
           (-30.0 30.0)
  end
  begin
     id 14 
     name lowerneck
     direction -0.0234223 0.997727 0.0631897   
     length 1.79511   
     axis 0 0 0   XYZ
    dof rx ry rz
    limits (-20.0 45.0)
           (-30.0 30.0)
           (-30.0 30.0)
  end
  begin
     id 15 
     name upperneck
     direction 0.0345303 0.984409 -0.172474   
     length 1.80359   
     axis 0 0 0   XYZ
    dof rx ry rz
    limits (-20.0 45.0)
           (-30.0 30.0)
           (-30.0 30.0)
  end
  begin
     id 16
     name head
     direction 0.00973222 0.9978 -0.0655778  
     length 1.81938  
     axis 0 0 0   XYZ
    dof rx ry rz
    limits (-20.0 45.0)
           (-30.0 30.0)
           (-30.0 30.0)
  end
  begin
     id 17 
     name lclavicle
     direction 0.971201 0.212597 -0.10757  
     length 3.74698  
     axis 0 0 0   XYZ
    dof ry rz
    limits (-20.0 10.0)
           (0.0 20.0)
  end
  begin
     id 18 
     name lhumerus
     direction 1 -4.4896e-011 1.42684e-027   
     length 4.83799   
     axis 180 -30 -90   XYZ
    dof rx ry rz
    limits (-60.0 90.0)
           (-90.0 90.0)
           (-90.0 90.0)
  end
  begin
     id 19
     name lradius
     direction 1 -4.48978e-011 1.53407e-026   
     length 2.68259   
     axis 180 -30 -90   XYZ
    dof rx
    limits (-10.0 170.0)
  end
  begin
     id 20
     name lwrist
     direction 1 -4.48982e-011 3.34345e-026   
     length 1.34129   
     axis -2.22354e-014 90 90   XYZ
    dof ry
    limits (-180.0 0.0)
 end
  begin
     id 21 
     name lhand
     direction 1 -4.48992e-011 6.6869e-026   
     length 0.724765   
     axis -4.26681e-014 90 90   XYZ
    dof rx rz
    limits (-90.0 90.0)
           (-45.0 45.0)
  end
  begin
     id 22 
     name lfingers
     direction 1 -4.48965e-011 1.33738e-025   
     length 0.584325   
     axis -8.53362e-014 90 90   XYZ
    dof rx
    limits (0.0 90.0)
  end
  begin
     id 23
     name lthumb
     direction 0.707107 -6.34915e-011 0.707107   
     length 0.838977   
     axis -90 45 2.85299e-015   XYZ
    dof rx rz
    limits (-45.0 45.0)
           (-45.0 45.0)
  end
  begin
     id 24 
     name rclavicle
     direction -0.987829 0.146084 -0.0534135   
     length 3.83678  
     axis 0 0 0   XYZ 
    dof ry rz
    limits (-10.0 20.0)
           (-20.0 0.0)
  end
  begin
     id 25 
     name rhumerus
     direction -1 -4.48963e-011 -3.4086e-018  
     length 4.61639   
     axis 180 30 90   XYZ
    dof rx ry rz
    limits (-90.0 60.0)
           (-90.0 90.0)
           (-90.0 90.0)
  end
  begin
     id 26 
     name rradius
     direction -1 -4.48983e-011 1.36226e-026   
     length 2.86915   
     axis 180 30 90   XYZ
    dof rx
    limits (-10.0 170.0)
  end
  begin
     id 27 
     name rwrist
     direction -1 -4.48927e-011 3.34345e-026   
     length 1.43458   
     axis -2.22354e-014 -90 -90   XYZ
    dof ry
    limits (-180.0 0.0)
  end
  begin
     id 28
     name rhand
     direction -1 -4.49071e-011 6.6869e-026   
     length 0.726007   
     axis -4.26681e-014 -90 -90   XYZ
    dof rx rz
    limits (-90.0 90.0)
           (-45.0 45.0)
  end
  begin
     id 29
     name rfingers
     direction -1 -4.48886e-011 1.33738e-025   
     length 0.585326   
     axis -8.53362e-014 -90 -90   XYZ
    dof rx
    limits (0.0 90.0)
  end
  begin
     id 30
     name rthumb
     direction -0.707107 -6.34932e-011 0.707107   
     length 0.840414   
     axis -90 -45 -2.85299e-015   XYZ
    dof rx rz
    limits (-45.0 45.0)
           (-45.0 45.0)
  end
:hierarchy
  begin
    root lhipjoint rhipjoint lowerback
    lhipjoint lfemur
    lfemur ltibia
    ltibia lfoot
    lfoot ltoes
    rhipjoint rfemur
    rfemur rtibia
    rtibia rfoot
    rfoot rtoes
    lowerback upperback
    upperback thorax
    thorax lowerneck lclavicle rclavicle
    lowerneck upperneck
    upperneck head
    lclavicle lhumerus
    lhumerus lradius
    lradius lwrist
    lwrist lhand lthumb
    lhand lfingers
    rclavicle rhumerus
    rhumerus rradius
    rradius rwrist
    rwrist rhand rthumb
    rhand rfingers
  end

#!OML:ASF F:\VICON\USERDATA\INSTALL\rory3\rory3.ASF
:FULLY-SPECIFIED
:DEGREES
16
root -1.97727 16.2797 -26.3286 3.47176 1.43573 1.59209
lowerback 12.3917 1.42004 -5.30032
upperback -4.90864 1.13003 1.24442
thorax -12.548 1.02744 4.11035
lowerneck -7.94708 -6.24878 -5.19813
upperneck 16.7109 -8.39172 3.39299
head 6.76701 -4.1042 1.23227
rclavicle -1.13432e-014 1.94809e-014
rhumerus -37.1423 -5.02307 -82.5365
rradius 22.5931
rwrist 11.59
rhand -7.67886 18.1885
rfingers 7.12502
rthumb 18.2178 -10.9783
lclavicle -1.13432e-014 1.94809e-014
lhumerus -43.0169 4.33226 86.2352
lradius 20.904
lwrist -0.730781
lhand -4.9039 19.6953
lfingers 7.12502
lthumb 20.8857 48.591
rfemur 10.822 8.63739 21.7054
rtibia 23.5667
rfoot -9.95533 -3.65113
rtoes 4.3326
lfemur -27.9932 -14.1433 -18.5807
ltibia 30.1996
lfoot -4.72391 3.86282
ltoes 35.3778
17
root -1.9196 16.283 -26.2007 3.11707 1.68925 1.89244
lowerback 12.3827 1.38523 -5.30375
upperback -4.69363 1.07432 1.13948
thorax -12.2852 0.983334 4.00879
lowerneck -8.20421 -6.3854 -5.03783
upperneck 16.8122 -8.55127 3.15052
head 6.8339 -4.18626 1.10514
rclavicle -4.15584e-015 1.74931e-014
rhumerus -37.4153 -4.99056 -82.3931
rradius 22.583
rwrist 11.1745
rhand -7.33156 17.664
rfingers 7.12502
rthumb 18.5519 -11.4714
lclavicle -4.15584e-015 1.74931e-014
lhumerus -42.9441 4.07657 86.4208
lradius 21.0691
lwrist -0.84867
lhand -4.90121 19.4396
lfingers 7.12502
lthumb 20.8883 48.335
rfemur 10.3067 7.55689 20.9983
rtibia 25.7922
rfoot -8.96805 -3.13831
rtoes 3.52276
lfemur -27.0348 -14.6574 -19.3356
ltibia 30.1535
lfoot -4.99693 4.06532
ltoes 34.7174
18
root -1.84896 16.2983 -26.0595 3.04029 0.673463 2.18685
lowerback 11.6695 1.64569 -5.30566
upperback -4.61673 1.45239 1.01182
thorax -11.8059 1.14168 3.78875
lowerneck -7.77137 -6.40726 -5.0137
upperneck 16.6944 -8.5711 2.98152
head 6.71281 -4.21489 1.06234
rclavicle 3.72721e-016 -1.23246e-014
rhumerus -37.6513 -5.49593 -81.9583
rradius 22.0972
rwrist 11.7048
rhand -7.37904 17.985
rfingers 7.12502
rthumb 18.5062 -11.1547
lclavicle 3.72721e-016 -1.23246e-014
lhumerus -43.0543 4.18874 86.369
lradius 20.922
lwrist -1.23896
lhand -4.60527 19.198
lfingers 7.12502
lthumb 21.1726 48.0618
rfemur 9.13476 7.24477 19.8513
rtibia 28.0278
rfoot -7.36798 -2.20071
rtoes 3.10904
lfemur -26.0948 -14.6145 -20.0768
ltibia 30.0959
lfoot -5.76561 4.93625
ltoes 34.4919
19
root -1.82295 16.3008 -25.991 3.16496 1.48852 2.35383
lowerback 12.095 1.39194 -5.39547
upperback -4.76304 1.06238 0.961216
thorax -12.1875 0.974631 3.86765
lowerneck -7.93209 -6.35489 -4.94527
upperneck 16.8542 -8.5078 2.98303
head 6.78635 -4.17709 1.0501
rclavicle -2.26987e-014 4.77083e-015
rhumerus -38.0025 -6.50872 -81.3429
rradius 21.5953
rwrist 12.8774
rhand -7.5826 18.7486
rfingers 7.12502
rthumb 18.3104 -10.4096
lclavicle -2.26987e-014 4.77083e-015
lhumerus -42.8805 3.90142 86.4958
lradius 20.5907
lwrist -1.25985
lhand -4.90206 18.3016
lfingers 7.12502
lthumb 20.8875 47.1971
rfemur 7.88973 5.9099 19.4418
rtibia 30.1408
rfoot -5.78444 -2.27352
rtoes 4.77534
lfemur -25.9728 -14.5654 -20.5202
ltibia 29.9877
lfoot -5.23223 4.3635
ltoes 33.5193
20
root -1.77497 16.304 -25.8844 2.95081 2.27416 2.66227
lowerback 12.3551 1.13511 -5.34092
upperback -4.75551 0.695374 0.829427
thorax -12.2896 0.792556 3.77421
lowerneck -8.01946 -6.3333 -4.82143
upperneck 17.0023 -8.48704 2.92123
head 6.83994 -4.16255 1.00782
rclavicle 1.76421e-015 -1.59028e-015
rhumerus -38.6959 -6.56564 -81.2095
rradius 21.6746
rwrist 13.0765
rhand -7.41564 18.2868
rfingers 7.12502
rthumb 18.471 -10.8562
lclavicle 1.76421e-015 -1.59028e-015
lhumerus -42.8837 3.33905 86.7937
lradius 20.5933
lwrist -0.810986
lhand -5.0054 18.2503
lfingers 7.12502
lthumb 20.7882 47.1567
rfemur 6.92207 4.60269 18.8177
rtibia 32.6887
rfoot -4.37096 -2.48277
rtoes 6.11349
lfemur -25.306 -15.3001 -21.2042
ltibia 29.885
lfoot -5.13516 4.42533
ltoes 32.9173
21
root -1.72724 16.2842 -25.7501 2.13474 4.41194 3.24271
lowerback 12.674 0.396442 -5.37999
upperback -4.47086 -0.336948 0.668751
thorax -12.039 0.285712 3.85553
lowerneck -7.45635 -6.33731 -4.81207
upperneck 16.6113 -8.49766 2.87643
head 6.61419 -4.18062 1.01591
rclavicle 3.32964e-015 3.57812e-015
rhumerus -38.7989 -6.5166 -81.1836
rradius 21.4159
rwrist 13.034
rhand -7.20403 18.073
rfingers 7.12502
rthumb 18.6746 -11.0506
lclavicle 3.32964e-015 3.57812e-015
lhumerus -42.8282 2.75427 87.1953
lradius 20.8764
lwrist -0.103934
lhand -4.46513 19.7106
lfingers 7.12502
lthumb 21.3072 48.5593
rfemur 7.21826 2.38137 18.1737
rtibia 35.0662
rfoot -3.34715 -2.99384
rtoes 7.58396
lfemur -23.8966 -16.8962 -22.4163
ltibia 29.7668
lfoot -4.9291 3.99094
ltoes 33.3453
22
root -1.68332 16.3272 -25.6786 3.3906 0.919398 3.19562
lowerback 11.5728 1.52861 -5.89502
upperback -4.87274 1.16245 0.694368
thorax -12.0195 1.04555 3.83694
lowerneck -7.45866 -6.34169 -4.7924
upperneck 16.4758 -8.49588 2.84396
head 6.5689 -4.18171 1.00459
rclavicle -2.62147e-015 4.77083e-015
rhumerus -38.6788 -6.4187 -81.1924
rradius 21.1463
rwrist 12.854
rhand -7.30549 18.5269
rfingers 7.12502
rthumb 18.577 -10.606
lclavicle -2.62147e-015 4.77083e-015
lhumerus -42.5308 2.18553 87.5459
lradius 21.0166
lwrist 0.111247
lhand -3.76384 20.7276
lfingers 7.12502
lthumb 21.9807 49.4987
rfemur 3.27969 4.1534 17.077
rtibia 37.7568
rfoot -0.40749 -2.16499
rtoes 8.95245
lfemur -24.5283 -14.6146 -22.3041
ltibia 29.5628
lfoot -5.54951 5.06669
ltoes 33.6424
23
root -1.63992 16.3259 -25.5629 3.08302 1.7521 3.39156
lowerback 11.7498 1.21424 -5.85282
upperback -4.71667 0.737274 0.688083
thorax -11.8955 0.83289 3.90008
lowerneck -7.80664 -6.32955 -4.87134
upperneck 16.6861 -8.45839 2.83637
head 6.69864 -4.16332 1.00311
rclavicle 3.18304e-014 1.19271e-015
rhumerus -38.9831 -5.84351 -81.3315
rradius 21.3938
rwrist 12.5561
rhand -7.46784 18.4483
rfingers 7.12502
rthumb 18.4208 -10.6995
lclavicle 3.18304e-014 1.19271e-015
lhumerus -42.3641 1.90399 87.7966
lradius 20.9837
lwrist 0.0490935
lhand -4.0269 20.163
lfingers 7.12502
lthumb 21.7281 48.9636
rfemur 2.43497 3.00429 16.701
rtibia 40.3107
rfoot 1.01108 -2.33565
rtoes 9.14084
lfemur -23.588 -15.2526 -22.8818
ltibia 29.2713
lfoot -5.51319 4.92962
ltoes 33.6848
24
root -1.59354 16.3362 -25.4598 2.89467 1.57516 3.60908
lowerback 11.9065 1.17149 -5.95563
upperback -4.67634 0.654981 0.705601
thorax -11.9375 0.802916 3.99578
lowerneck -7.98317 -6.24335 -4.94857
upperneck 16.7936 -8.29985 2.6964
head 6.75506 -4.10033 0.977937
rclavicle 1.1778e-014 -6.36111e-015
rhumerus -39.5009 -4.97704 -81.4819
rradius 21.7808
rwrist 12.0958
rhand -7.21443 18.0716
rfingers 7.12502
rthumb 18.6646 -11.053
lclavicle 1.1778e-014 -6.36111e-015
lhumerus -42.3059 2.02087 87.8993
lradius 21.0485
lwrist -0.166188
lhand -4.23709 19.6547
lfingers 7.12502
lthumb 21.5263 48.4785
rfemur 0.935603 2.59987 16.0662
rtibia 43.1193
rfoot 2.91907 -2.37147
rtoes 9.9986
lfemur -22.6944 -15.4079 -23.4427
ltibia 28.9144
lfoot -5.76909 5.23979
ltoes 34.1442
25
root -1.55154 16.3472 -25.359 2.86488 0.752293 3.94433
lowerback 11.9666 1.40649 -6.31786
upperback -4.6389 0.898193 0.624903
thorax -11.9706 0.942051 4.05743
lowerneck -8.56983 -6.18667 -4.88771
upperneck 17.0631 -8.20044 2.62828
head 6.93481 -4.04568 0.932635
rclavicle 1.09953e-014 -3.57812e-015
rhumerus -39.6728 -4.81074 -81.4421
rradius 21.7062
rwrist 12.3048
rhand -7.01256 18.6216
rfingers 7.12502
rthumb 18.8587 -10.4842
lclavicle 1.09953e-014 -3.57812e-015
lhumerus -42.1264 1.94966 87.976
lradius 21.468
lwrist -0.055553
lhand -4.01298 20.0978
lfingers 7.12502
lthumb 21.7415 48.8968
rfemur -0.845815 2.7269 15.2221
rtibia 45.7454
rfoot 4.91173 -2.27743
rtoes 10.8367
lfemur -21.8484 -14.9373 -24.1088
ltibia 28.41
lfoot -6.06514 5.56232
ltoes 34.0355
26
root -1.51604 16.3548 -25.2589 2.71959 0.354732 4.17765
lowerback 12.2716 1.57856 -6.50097
upperback -4.5943 1.0657 0.518385
thorax -12.129 1.0337 4.00342
lowerneck -8.77141 -6.24702 -4.86003
upperneck 17.1744 -8.29227 2.68377
head 7.01091 -4.08026 0.928958
rclavicle -1.40516e-014 -9.93923e-015
rhumerus -39.6544 -5.24044 -81.2111
rradius 21.4255
rwrist 12.9182
rhand -6.92743 19.3743
rfingers 7.12502
rthumb 18.9406 -9.72356
lclavicle -1.40516e-014 -9.93923e-015
lhumerus -41.8936 1.48786 88.1623
lradius 21.8116
lwrist 0.244682
lhand -3.80154 20.5663
lfingers 7.12502
lthumb 21.9445 49.3416
rfemur -2.42545 2.6036 14.616
rtibia 48.3468
rfoot 6.69282 -2.32946
rtoes 10.9156
lfemur -20.8555 -14.592 -24.6706
ltibia 27.7765
lfoot -6.22837 5.6107
ltoes 33.8393
27
root -1.4878 16.3676 -25.1577 2.70066 0.206736 4.4533
lowerback 12.3696 1.60348 -6.86165
upperback -4.67037 1.02464 0.499315
thorax -12.2835 1.04848 4.19493
lowerneck -8.37738 -6.19723 -4.83276
upperneck 17.0312 -8.2247 2.58908
head 6.88763 -4.05991 0.916006
rclavicle 2.85753e-016 -1.03368e-014
rhumerus -40.0128 -4.76881 -81.3205
rradius 21.6622
rwrist 12.6511
rhand -6.6526 19.0505
rfingers 7.12502
rthumb 19.2049 -10.0213
lclavicle 2.85753e-016 -1.03368e-014
lhumerus -41.8051 1.30134 88.28
lradius 21.8433
lwrist 0.463477
lhand -3.85087 20.6013
lfingers 7.12502
lthumb 21.8972 49.3822
rfemur -4.08258 2.28861 14.0574
rtibia 50.8836
rfoot 8.5247 -2.55372
rtoes 10.5151
lfemur -19.9796 -14.2924 -25.2217
ltibia 27.0729
lfoot -6.24267 5.55579
ltoes 33.667
28
root -1.45528 16.3779 -25.046 2.68424 0.518653 4.82841
lowerback 12.2122 1.42663 -7.1071
upperback -4.65438 0.746764 0.408472
thorax -12.1387 0.926404 4.29845
lowerneck -8.39959 -6.05503 -4.76459
upperneck 17.1646 -8.03459 2.54103
head 6.92197 -3.96759 0.905109
rclavicle -1.23868e-014 1.19271e-015
rhumerus -40.2421 -4.42148 -81.458
rradius 21.8271
rwrist 12.4044
rhand -6.39068 18.835
rfingers 7.12502
rthumb 19.4568 -10.2116
lclavicle -1.23868e-014 1.19271e-015
lhumerus -41.6326 1.18606 88.3306
lradius 22.0581
lwrist 0.664176
lhand -3.95975 20.9316
lfingers 7.12502
lthumb 21.7926 49.7247
rfemur -5.46782 1.58903 13.4591
rtibia 53.2108
rfoot 10.5423 -2.92267
rtoes 10.0605
lfemur -19.053 -14.4057 -25.8906
ltibia 26.3194
lfoot -6.25715 5.441
ltoes 33.5943
29
root -1.42041 16.3887 -24.9417 2.46303 -0.0882394 5.05597
lowerback 12.1428 1.60617 -7.18656
upperback -4.41628 0.970587 0.24249
thorax -11.8528 1.01346 4.11058
lowerneck -8.854 -6.03218 -4.60151
upperneck 17.2908 -8.01475 2.55549
head 7.0351 -3.9401 0.869304
rclavicle -1.09332e-014 3.97569e-015
rhumerus -39.9886 -4.75779 -81.4842
rradius 21.5537
rwrist 12.6289
rhand -6.48086 19.2043
rfingers 7.12502
rthumb 19.37 -9.85098
lclavicle -1.09332e-014 3.97569e-015
lhumerus -41.1254 0.522561 88.5109
lradius 22.3631
lwrist 0.8354
lhand -4.31937 21.0739
lfingers 7.12502
lthumb 21.4472 49.9067
rfemur -6.99379 1.67394 12.9384
rtibia 55.5489
rfoot 12.9865 -3.4518
rtoes 10.767
lfemur -17.9081 -14.0938 -26.4446
ltibia 25.6485
lfoot -6.59789 5.69895
ltoes 33.7176
